<?xml version="1.0" standalone="no"?>
<!DOCTYPE svg PUBLIC "-//W3C//DTD SVG 20010904//EN"
 "http://www.w3.org/TR/2001/REC-SVG-20010904/DTD/svg10.dtd">
<svg version="1.0" xmlns="http://www.w3.org/2000/svg"
 width="700.000000pt" height="700.000000pt" viewBox="0 0 700.000000 700.000000"
 preserveAspectRatio="xMidYMid meet">
<metadata>
Created by potrace 1.14, written by Peter Selinger 2001-2017
</metadata>
<g transform="translate(0.000000,700.000000) scale(0.100000,-0.100000)"
fill="#000000" stroke="none">
<path d="M3425 6328 c-511 -615 -931 -1535 -1040 -2278 -4 -25 -8 -46 -9 -47
-2 -2 -47 19 -102 46 -270 133 -517 214 -839 275 -18 3 -114 18 -213 32 -80
11 -232 17 -427 18 l-210 1 1 -255 c0 -215 5 -347 19 -535 1 -16 5 -55 9 -85
4 -30 9 -72 12 -92 16 -142 45 -295 84 -448 57 -227 125 -409 245 -655 165
-338 324 -565 564 -806 373 -373 798 -618 1366 -785 142 -42 117 -36 285 -73
138 -30 171 -36 262 -47 29 -4 55 -8 58 -9 7 -4 167 19 255 36 28 6 61 12 75
15 14 3 61 14 105 25 44 12 88 22 97 24 99 20 454 146 593 211 33 15 62 28 65
29 6 1 47 23 140 73 380 206 741 533 990 898 73 107 203 324 194 324 -3 0 3
12 13 28 41 60 156 330 213 501 44 132 104 382 124 516 27 178 33 233 51 450
13 146 13 653 1 657 -33 12 -542 -2 -626 -17 -14 -2 -47 -7 -75 -10 -310 -36
-689 -151 -978 -296 -54 -27 -100 -49 -101 -49 -2 0 -7 21 -11 48 -103 718
-504 1611 -1001 2231 -58 72 -108 131 -113 131 -4 0 -38 -37 -76 -82z m142
-1037 c216 -382 402 -885 457 -1231 3 -19 8 -46 11 -59 7 -37 22 -170 30 -274
l5 -58 -153 -152 c-84 -84 -168 -170 -188 -192 -61 -71 -169 -205 -196 -246
-14 -21 -29 -39 -32 -39 -4 0 -14 12 -23 28 -9 15 -24 36 -32 47 -114 147
-177 218 -333 373 l-183 183 5 67 c6 75 14 154 20 192 2 14 7 45 10 70 30 217
124 536 240 820 78 192 275 580 295 580 3 0 34 -49 67 -109z m-2262 -1535 c17
-3 41 -8 55 -11 14 -3 36 -8 50 -11 14 -3 33 -7 42 -10 9 -3 25 -7 36 -9 31
-6 161 -44 242 -72 524 -177 974 -499 1277 -913 79 -108 177 -290 247 -457 44
-106 120 -347 132 -422 3 -14 9 -39 14 -56 11 -38 57 -313 64 -385 6 -56 16
-172 19 -206 2 -22 -23 -22 -138 1 -38 8 -81 16 -95 18 -153 28 -418 117 -588
198 -46 21 -85 39 -87 39 -12 0 -233 132 -313 187 -408 278 -666 589 -847
1018 -61 147 -141 427 -170 595 -3 19 -8 42 -10 50 -5 18 -12 66 -20 135 -3
28 -7 64 -10 80 -5 32 -12 106 -20 196 l-5 56 48 -8 c26 -4 61 -10 77 -13z
m4510 -33 c-4 -50 -9 -95 -20 -208 -10 -93 -28 -203 -50 -300 -2 -11 -6 -31
-9 -45 -31 -141 -98 -356 -132 -422 -8 -16 -12 -28 -9 -28 10 0 -184 -369
-238 -453 -153 -232 -387 -475 -597 -617 -154 -104 -383 -222 -572 -294 l-113
-43 -7 24 c-4 14 -9 46 -12 71 -5 49 -33 238 -41 282 -3 14 -7 37 -10 53 -6
30 -34 160 -41 192 -3 11 -7 31 -10 44 -11 56 -66 243 -98 341 l-35 105 51 90
c298 524 780 917 1383 1125 159 55 387 112 505 127 25 3 47 7 49 9 10 9 11 1
6 -53z"/>
</g>
</svg>
